<svg width="1512" height="982" viewBox="0 0 1512 982" fill="none" xmlns="http://www.w3.org/2000/svg">
<g opacity="0.25">
<g clip-path="url(#clip0_390_1618298)">
<path d="M-18.1931 592.908L770.82 134.388" stroke="#D3E5E4" stroke-width="3.2281" stroke-miterlimit="10"/>
<path d="M19.6079 614.73L808.621 156.21" stroke="#D3E5E4" stroke-width="3.2281" stroke-miterlimit="10"/>
<path d="M57.0859 636.584L846.099 178.064" stroke="#D3E5E4" stroke-width="3.2281" stroke-miterlimit="10"/>
<path d="M94.8875 658.406L883.9 199.886" stroke="#D3E5E4" stroke-width="3.2281" stroke-miterlimit="10"/>
<path d="M132.915 680.26L921.927 221.741" stroke="#D3E5E4" stroke-width="3.2281" stroke-miterlimit="10"/>
<path d="M170.716 702.082L959.728 243.562" stroke="#D3E5E4" stroke-width="3.2281" stroke-miterlimit="10"/>
<path d="M208.194 723.904L997.206 265.384" stroke="#D3E5E4" stroke-width="3.2281" stroke-miterlimit="10"/>
<path d="M245.995 745.758L1035.01 287.239" stroke="#D3E5E4" stroke-width="3.2281" stroke-miterlimit="10"/>
<path d="M284.248 767.58L1073.26 309.061" stroke="#D3E5E4" stroke-width="3.2281" stroke-miterlimit="10"/>
<path d="M322.049 789.402L1111.06 330.883" stroke="#D3E5E4" stroke-width="3.2281" stroke-miterlimit="10"/>
<path d="M359.527 811.257L1148.54 352.737" stroke="#D3E5E4" stroke-width="3.2281" stroke-miterlimit="10"/>
<path d="M397.328 833.079L1186.34 374.559" stroke="#D3E5E4" stroke-width="3.2281" stroke-miterlimit="10"/>
<path d="M435.355 854.933L1224.37 396.413" stroke="#D3E5E4" stroke-width="3.2281" stroke-miterlimit="10"/>
<path d="M473.156 876.755L1262.17 418.235" stroke="#D3E5E4" stroke-width="3.2281" stroke-miterlimit="10"/>
<path d="M510.635 898.577L1299.65 440.057" stroke="#D3E5E4" stroke-width="3.2281" stroke-miterlimit="10"/>
<path d="M548.436 920.399L1337.45 461.911" stroke="#D3E5E4" stroke-width="3.2281" stroke-miterlimit="10"/>
<path d="M586.301 942.124L1375.28 483.604" stroke="#D3E5E4" stroke-width="3.2281" stroke-miterlimit="10"/>
<path d="M623.747 963.946L1412.76 505.426" stroke="#D3E5E4" stroke-width="3.2281" stroke-miterlimit="10"/>
<path d="M661.549 985.8L1450.56 527.28" stroke="#D3E5E4" stroke-width="3.2281" stroke-miterlimit="10"/>
<path d="M699.575 1007.62L1488.59 549.102" stroke="#D3E5E4" stroke-width="3.2281" stroke-miterlimit="10"/>
<path d="M1488.59 592.908L699.575 134.388" stroke="#D3E5E4" stroke-width="3.2281" stroke-miterlimit="10"/>
<path d="M1450.79 614.73L661.774 156.21" stroke="#D3E5E4" stroke-width="3.2281" stroke-miterlimit="10"/>
<path d="M1413.31 636.584L624.296 178.064" stroke="#D3E5E4" stroke-width="3.2281" stroke-miterlimit="10"/>
<path d="M1375.51 658.406L586.495 199.886" stroke="#D3E5E4" stroke-width="3.2281" stroke-miterlimit="10"/>
<path d="M1337.48 680.26L548.468 221.741" stroke="#D3E5E4" stroke-width="3.2281" stroke-miterlimit="10"/>
<path d="M1299.68 702.082L510.667 243.562" stroke="#D3E5E4" stroke-width="3.2281" stroke-miterlimit="10"/>
<path d="M1262.2 723.904L473.188 265.384" stroke="#D3E5E4" stroke-width="3.2281" stroke-miterlimit="10"/>
<path d="M1224.4 745.758L435.388 287.239" stroke="#D3E5E4" stroke-width="3.2281" stroke-miterlimit="10"/>
<path d="M1186.15 767.58L397.135 309.061" stroke="#D3E5E4" stroke-width="3.2281" stroke-miterlimit="10"/>
<path d="M1148.35 789.402L359.333 330.883" stroke="#D3E5E4" stroke-width="3.2281" stroke-miterlimit="10"/>
<path d="M1110.87 811.257L321.887 352.737" stroke="#D3E5E4" stroke-width="3.2281" stroke-miterlimit="10"/>
<path d="M1073.07 833.079L284.054 374.559" stroke="#D3E5E4" stroke-width="3.2281" stroke-miterlimit="10"/>
<path d="M1035.04 854.933L246.027 396.413" stroke="#D3E5E4" stroke-width="3.2281" stroke-miterlimit="10"/>
<path d="M997.239 876.755L208.226 418.235" stroke="#D3E5E4" stroke-width="3.2281" stroke-miterlimit="10"/>
<path d="M959.761 898.577L170.78 440.057" stroke="#D3E5E4" stroke-width="3.2281" stroke-miterlimit="10"/>
<path d="M921.959 920.399L132.946 461.911" stroke="#D3E5E4" stroke-width="3.2281" stroke-miterlimit="10"/>
<path d="M884.094 942.124L95.1133 483.604" stroke="#D3E5E4" stroke-width="3.2281" stroke-miterlimit="10"/>
<path d="M846.648 963.946L57.635 505.426" stroke="#D3E5E4" stroke-width="3.2281" stroke-miterlimit="10"/>
<path d="M808.847 985.8L19.8342 527.28" stroke="#D3E5E4" stroke-width="3.2281" stroke-miterlimit="10"/>
<path d="M770.82 1007.62L-18.1931 549.102" stroke="#D3E5E4" stroke-width="3.2281" stroke-miterlimit="10"/>
<path d="M699.575 1007.53L1488.59 549.005" stroke="#D3E5E4" stroke-width="3.2281" stroke-miterlimit="10"/>
<path d="M737.053 1029.35L1526.07 570.827" stroke="#D3E5E4" stroke-width="3.2281" stroke-miterlimit="10"/>
<path d="M774.855 1051.17L1563.87 592.649" stroke="#D3E5E4" stroke-width="3.2281" stroke-miterlimit="10"/>
<path d="M813.108 1073.02L1602.12 614.504" stroke="#D3E5E4" stroke-width="3.2281" stroke-miterlimit="10"/>
<path d="M850.909 1094.85L1639.92 636.326" stroke="#D3E5E4" stroke-width="3.2281" stroke-miterlimit="10"/>
<path d="M888.387 1116.7L1677.37 658.18" stroke="#D3E5E4" stroke-width="3.2281" stroke-miterlimit="10"/>
<path d="M926.188 1138.52L1715.2 680.002" stroke="#D3E5E4" stroke-width="3.2281" stroke-miterlimit="10"/>
<path d="M964.215 1160.34L1753.23 701.824" stroke="#D3E5E4" stroke-width="3.2281" stroke-miterlimit="10"/>
<path d="M1002.02 1182.2L1791.03 723.678" stroke="#D3E5E4" stroke-width="3.2281" stroke-miterlimit="10"/>
<path d="M1039.49 1204.02L1828.47 745.5" stroke="#D3E5E4" stroke-width="3.2281" stroke-miterlimit="10"/>
<path d="M1077.3 1225.84L1866.31 767.322" stroke="#D3E5E4" stroke-width="3.2281" stroke-miterlimit="10"/>
<path d="M1115.16 1247.57L1904.14 789.047" stroke="#D3E5E4" stroke-width="3.2281" stroke-miterlimit="10"/>
<path d="M1152.61 1269.39L1941.62 810.869" stroke="#D3E5E4" stroke-width="3.2281" stroke-miterlimit="10"/>
<path d="M1190.41 1291.21L1979.42 832.723" stroke="#D3E5E4" stroke-width="3.2281" stroke-miterlimit="10"/>
<path d="M1714.85 1030.38L1222.56 744.306" stroke="#D3E5E4" stroke-width="3.2281" stroke-miterlimit="10"/>
<path d="M1676.95 1052.43L1184.31 766.128" stroke="#D3E5E4" stroke-width="3.2281" stroke-miterlimit="10"/>
<path d="M1639.24 1074.31L1146.51 787.95" stroke="#D3E5E4" stroke-width="3.2281" stroke-miterlimit="10"/>
<path d="M1601.73 1096.14L1109.03 809.804" stroke="#D3E5E4" stroke-width="3.2281" stroke-miterlimit="10"/>
<path d="M1564.06 1118.02L1071.23 831.626" stroke="#D3E5E4" stroke-width="3.2281" stroke-miterlimit="10"/>
<path d="M1526.26 1140.01L1033.2 853.48" stroke="#D3E5E4" stroke-width="3.2281" stroke-miterlimit="10"/>
<path d="M1488.56 1161.89L995.399 875.302" stroke="#D3E5E4" stroke-width="3.2281" stroke-miterlimit="10"/>
<path d="M1451.05 1183.71L957.92 897.124" stroke="#D3E5E4" stroke-width="3.2281" stroke-miterlimit="10"/>
<path d="M1413.34 1205.6L920.119 918.978" stroke="#D3E5E4" stroke-width="3.2281" stroke-miterlimit="10"/>
<path d="M1375.73 1227.46L882.254 940.671" stroke="#D3E5E4" stroke-width="3.2281" stroke-miterlimit="10"/>
<path d="M1338.22 1249.28L844.775 962.493" stroke="#D3E5E4" stroke-width="3.2281" stroke-miterlimit="10"/>
<path d="M1977.35 877.852L1486.75 592.746" stroke="#D3E5E4" stroke-width="3.2281" stroke-miterlimit="10"/>
<path d="M1939.84 899.642L1449.27 614.568" stroke="#D3E5E4" stroke-width="3.2281" stroke-miterlimit="10"/>
<path d="M1902.14 921.561L1411.47 636.39" stroke="#D3E5E4" stroke-width="3.2281" stroke-miterlimit="10"/>
<path d="M1864.57 943.415L1373.64 658.115" stroke="#D3E5E4" stroke-width="3.2281" stroke-miterlimit="10"/>
<path d="M1827.02 965.205L1336.16 679.937" stroke="#D3E5E4" stroke-width="3.2281" stroke-miterlimit="10"/>
<path d="M1789.32 987.124L1298.36 701.759" stroke="#D3E5E4" stroke-width="3.2281" stroke-miterlimit="10"/>
<path d="M1751.55 1009.07L1260.33 723.581" stroke="#D3E5E4" stroke-width="3.2281" stroke-miterlimit="10"/>
</g>
<g clip-path="url(#clip1_390_1618298)">
<path d="M506.807 24.9077L1295.82 -433.612" stroke="#D3E5E4" stroke-width="3.2281" stroke-miterlimit="10"/>
<path d="M544.608 46.7296L1333.62 -411.79" stroke="#D3E5E4" stroke-width="3.2281" stroke-miterlimit="10"/>
<path d="M582.086 68.5839L1371.1 -389.936" stroke="#D3E5E4" stroke-width="3.2281" stroke-miterlimit="10"/>
<path d="M619.887 90.4058L1408.9 -368.114" stroke="#D3E5E4" stroke-width="3.2281" stroke-miterlimit="10"/>
<path d="M657.915 112.26L1446.93 -346.259" stroke="#D3E5E4" stroke-width="3.2281" stroke-miterlimit="10"/>
<path d="M695.716 134.082L1484.73 -324.438" stroke="#D3E5E4" stroke-width="3.2281" stroke-miterlimit="10"/>
<path d="M733.194 155.904L1522.21 -302.615" stroke="#D3E5E4" stroke-width="3.2281" stroke-miterlimit="10"/>
<path d="M770.995 177.758L1560.01 -280.761" stroke="#D3E5E4" stroke-width="3.2281" stroke-miterlimit="10"/>
<path d="M809.248 199.58L1598.26 -258.939" stroke="#D3E5E4" stroke-width="3.2281" stroke-miterlimit="10"/>
<path d="M847.049 221.402L1636.06 -237.117" stroke="#D3E5E4" stroke-width="3.2281" stroke-miterlimit="10"/>
<path d="M884.527 243.257L1673.54 -215.263" stroke="#D3E5E4" stroke-width="3.2281" stroke-miterlimit="10"/>
<path d="M922.328 265.079L1711.34 -193.441" stroke="#D3E5E4" stroke-width="3.2281" stroke-miterlimit="10"/>
<path d="M960.355 286.933L1749.37 -171.587" stroke="#D3E5E4" stroke-width="3.2281" stroke-miterlimit="10"/>
<path d="M998.156 308.755L1787.17 -149.765" stroke="#D3E5E4" stroke-width="3.2281" stroke-miterlimit="10"/>
<path d="M1035.63 330.577L1824.65 -127.943" stroke="#D3E5E4" stroke-width="3.2281" stroke-miterlimit="10"/>
<path d="M1073.44 352.399L1862.45 -106.089" stroke="#D3E5E4" stroke-width="3.2281" stroke-miterlimit="10"/>
<path d="M1111.3 374.124L1900.28 -84.3958" stroke="#D3E5E4" stroke-width="3.2281" stroke-miterlimit="10"/>
<path d="M1148.75 395.946L1937.76 -62.5739" stroke="#D3E5E4" stroke-width="3.2281" stroke-miterlimit="10"/>
<path d="M1186.55 417.8L1975.56 -40.7196" stroke="#D3E5E4" stroke-width="3.2281" stroke-miterlimit="10"/>
<path d="M1224.58 439.622L2013.59 -18.8977" stroke="#D3E5E4" stroke-width="3.2281" stroke-miterlimit="10"/>
<path d="M2013.59 24.9077L1224.58 -433.612" stroke="#D3E5E4" stroke-width="3.2281" stroke-miterlimit="10"/>
<path d="M1975.79 46.7296L1186.77 -411.79" stroke="#D3E5E4" stroke-width="3.2281" stroke-miterlimit="10"/>
<path d="M1938.31 68.5839L1149.3 -389.936" stroke="#D3E5E4" stroke-width="3.2281" stroke-miterlimit="10"/>
<path d="M1900.51 90.4058L1111.5 -368.114" stroke="#D3E5E4" stroke-width="3.2281" stroke-miterlimit="10"/>
<path d="M1862.48 112.26L1073.47 -346.259" stroke="#D3E5E4" stroke-width="3.2281" stroke-miterlimit="10"/>
<path d="M1824.68 134.082L1035.67 -324.438" stroke="#D3E5E4" stroke-width="3.2281" stroke-miterlimit="10"/>
<path d="M1787.2 155.904L998.188 -302.615" stroke="#D3E5E4" stroke-width="3.2281" stroke-miterlimit="10"/>
<path d="M1749.4 177.758L960.388 -280.761" stroke="#D3E5E4" stroke-width="3.2281" stroke-miterlimit="10"/>
<path d="M1711.15 199.58L922.135 -258.939" stroke="#D3E5E4" stroke-width="3.2281" stroke-miterlimit="10"/>
<path d="M1673.35 221.402L884.333 -237.117" stroke="#D3E5E4" stroke-width="3.2281" stroke-miterlimit="10"/>
<path d="M1635.87 243.257L846.887 -215.263" stroke="#D3E5E4" stroke-width="3.2281" stroke-miterlimit="10"/>
<path d="M1598.07 265.079L809.054 -193.441" stroke="#D3E5E4" stroke-width="3.2281" stroke-miterlimit="10"/>
<path d="M1560.04 286.933L771.027 -171.587" stroke="#D3E5E4" stroke-width="3.2281" stroke-miterlimit="10"/>
<path d="M1522.24 308.755L733.226 -149.765" stroke="#D3E5E4" stroke-width="3.2281" stroke-miterlimit="10"/>
<path d="M1484.76 330.577L695.78 -127.943" stroke="#D3E5E4" stroke-width="3.2281" stroke-miterlimit="10"/>
<path d="M1446.96 352.399L657.946 -106.089" stroke="#D3E5E4" stroke-width="3.2281" stroke-miterlimit="10"/>
<path d="M1409.09 374.124L620.113 -84.3958" stroke="#D3E5E4" stroke-width="3.2281" stroke-miterlimit="10"/>
<path d="M1371.65 395.946L582.635 -62.5739" stroke="#D3E5E4" stroke-width="3.2281" stroke-miterlimit="10"/>
<path d="M1333.85 417.8L544.834 -40.7196" stroke="#D3E5E4" stroke-width="3.2281" stroke-miterlimit="10"/>
<path d="M1295.82 439.622L506.807 -18.8977" stroke="#D3E5E4" stroke-width="3.2281" stroke-miterlimit="10"/>
<path d="M1224.58 439.525L2013.59 -18.9945" stroke="#D3E5E4" stroke-width="3.2281" stroke-miterlimit="10"/>
<path d="M1262.05 461.347L2051.07 2.82751" stroke="#D3E5E4" stroke-width="3.2281" stroke-miterlimit="10"/>
<path d="M1299.85 483.169L2088.87 24.6495" stroke="#D3E5E4" stroke-width="3.2281" stroke-miterlimit="10"/>
<path d="M1338.11 505.023L2127.12 46.5037" stroke="#D3E5E4" stroke-width="3.2281" stroke-miterlimit="10"/>
<path d="M1375.91 526.845L2164.92 68.3257" stroke="#D3E5E4" stroke-width="3.2281" stroke-miterlimit="10"/>
<path d="M1413.39 548.7L2202.37 90.18" stroke="#D3E5E4" stroke-width="3.2281" stroke-miterlimit="10"/>
<path d="M1451.19 570.521L2240.2 112.002" stroke="#D3E5E4" stroke-width="3.2281" stroke-miterlimit="10"/>
<path d="M1489.21 592.343L2278.23 133.824" stroke="#D3E5E4" stroke-width="3.2281" stroke-miterlimit="10"/>
<path d="M1976.05 615.715L1482.92 329.124" stroke="#D3E5E4" stroke-width="3.2281" stroke-miterlimit="10"/>
<path d="M1938.34 637.601L1445.12 350.978" stroke="#D3E5E4" stroke-width="3.2281" stroke-miterlimit="10"/>
<path d="M1900.73 659.456L1407.25 372.671" stroke="#D3E5E4" stroke-width="3.2281" stroke-miterlimit="10"/>
<path d="M1863.22 681.278L1369.78 394.493" stroke="#D3E5E4" stroke-width="3.2281" stroke-miterlimit="10"/>
<path d="M1825.52 703.164L1331.97 416.347" stroke="#D3E5E4" stroke-width="3.2281" stroke-miterlimit="10"/>
<path d="M1787.75 725.115L1293.95 438.169" stroke="#D3E5E4" stroke-width="3.2281" stroke-miterlimit="10"/>
</g>
</g>
<defs>
<clipPath id="clip0_390_1618298">
<rect width="1999.23" height="1161.5" fill="white" transform="translate(-19 133)"/>
</clipPath>
<clipPath id="clip1_390_1618298">
<rect width="1999.23" height="1161.5" fill="white" transform="translate(506 -435)"/>
</clipPath>
</defs>
</svg>
